<?xml version="1.0" encoding="UTF-8" standalone="no"?>
<!DOCTYPE svg PUBLIC "-//W3C//DTD SVG 1.1//EN" "http://www.w3.org/Graphics/SVG/1.1/DTD/svg11.dtd">
<svg width="100%" height="100%" viewBox="0 0 342 230" version="1.1" xmlns="http://www.w3.org/2000/svg" xmlns:xlink="http://www.w3.org/1999/xlink" xml:space="preserve" xmlns:serif="http://www.serif.com/" style="fill-rule:evenodd;clip-rule:evenodd;stroke-linejoin:round;stroke-miterlimit:1.41421;">
    <g transform="matrix(1,0,0,1,-8696,3190)">
        <g transform="matrix(0.0409778,0,0,0.0409778,9125.73,-3464.65)">
            <g transform="matrix(7.63269,-3.0872,3.18877,7.8838,-52842.9,-19634.8)">
                <path d="M3450.09,5397.48C3469.4,5401.82 3540.14,5413.25 3570.28,5357.18C3574.13,5350.01 3577.25,5343.35 3579.96,5336.98C3569.01,5316.71 3566.43,5299.76 3566.82,5285.64C3561.95,5287.39 3556.29,5286.26 3553.19,5280.26C3545.93,5266.24 3535.43,5257.01 3520.98,5250.76C3514.88,5248.13 3513.56,5239.29 3516.61,5234.08C3520.27,5227.84 3527.19,5227.08 3533.29,5229.71C3548.47,5236.26 3560.96,5246.88 3569.86,5260.53L3569.88,5260.43C3571.11,5253.06 3574.34,5245.2 3578.94,5237.71C3578.79,5237.41 3578.64,5237.09 3578.49,5236.79C3567.89,5214.68 3534.36,5195.71 3511.32,5201.72C3509.2,5202.28 3507.39,5202.7 3505.58,5203.13C3520.94,5112.63 3560.71,5036.45 3628.71,4981.13C3597.65,5047.93 3612.88,5131.08 3639.37,5201.01C3644.78,5200.71 3648.66,5200.31 3651.32,5199.91C3653.59,5197.48 3656.98,5193.46 3661.57,5187.32C3631.93,5107.93 3617.75,5008.89 3685.82,4946.91C3686.3,4946.47 3686.66,4946 3687.05,4945.54C3698.93,4941.2 3673.23,4920.45 3670.08,4922.17C3561.7,4981.42 3499.22,5079.63 3479.81,5200.31C3477.11,5198.44 3474.07,5196.25 3470.34,5193.37C3451.49,5178.81 3413.21,5183.15 3394.8,5199.34C3376.44,5215.49 3348.28,5236.88 3355.26,5313.34C3361.04,5376.76 3430.64,5393.91 3450.09,5397.48ZM3813.64,5273.26C3799.09,5197.86 3766.09,5185.16 3743.97,5174.74C3736.84,5171.38 3728.08,5169.77 3719,5169.77C3699.85,5169.77 3679.29,5176.95 3669.74,5189.99C3668.03,5192.33 3666.46,5194.4 3665.02,5196.25C3660.62,5201.9 3657.46,5205.36 3655.29,5207.47C3652.59,5208 3648.48,5208.56 3642.41,5208.97C3639.6,5209.15 3636.42,5209.31 3632.69,5209.41C3613.81,5209.9 3592.99,5227.35 3583.17,5246.6C3580.61,5251.62 3578.74,5256.76 3577.92,5261.76C3575.22,5277.87 3570.72,5298.59 3583.96,5326.89C3590.54,5340.97 3601.43,5356.88 3619.28,5375.12C3637.17,5393.4 3658.34,5399.39 3678.39,5399.39C3708.23,5399.39 3735.57,5386.13 3745.94,5380.43C3763.64,5371.59 3825.71,5335.76 3813.64,5273.26ZM3753.7,5240.97C3742.15,5224.56 3724.8,5216.72 3705.15,5222.18C3689.98,5226.41 3683.54,5202.88 3698.67,5198.67C3729.4,5190.12 3756.91,5203.31 3774.76,5228.65C3783.84,5241.55 3762.68,5253.72 3753.7,5240.97Z" style="fill:white;fill-rule:nonzero;"/>
            </g>
            <g transform="matrix(3,0,0,3,-5573.56,8877.8)">
                <path d="M0,749.051C127.48,933.408 335.686,905.853 419.793,788.14C275.282,822.991 134.158,828.559 0,749.051M-206.852,429.831C-206.399,513.906 -171.384,571.578 -121.667,586.742C-65.789,603.783 1.939,581.389 30.624,518.208C53.426,467.988 67.127,405.977 60.942,351.939C50.031,256.593 -55.51,222.351 -130.866,282.741C-182.852,324.404 -204.838,381.138 -206.852,429.831M343.17,397.317L341.255,395.486C367.114,434.69 386.592,481.031 420.444,511.295C462.997,549.337 532.106,536.197 568.138,495.701C645.086,409.217 596.109,228.181 483.592,201.468C449.912,193.471 399.176,205.275 373.263,227.68C322.784,271.323 317.077,334.201 343.17,397.317M694.404,375.511C701.521,453.196 719.331,525.565 712.45,595.505C692.245,800.877 530.211,959.047 313.832,996.177C89.153,1034.73 -101.229,963.625 -265.675,812.231C-278.4,800.515 -296.921,773.71 -296.921,773.71C-319.35,742.928 -327.394,710.747 -325.383,677.589C-325.383,677.589 -310.807,485.559 -298.744,389.857C-281.506,253.089 -273.517,113.936 -202.178,-10.489C-167.28,-71.354 -118.41,-102.392 -49.011,-113.541C31.084,-126.407 110.854,-145.035 188.459,-168.717C286.94,-198.769 361.273,-184.747 421.826,-102.785C484.877,-17.443 540.609,73.304 599.215,161.198C608.272,70.533 616.647,-21.933 626.939,-114.186C640.87,-239.049 688.526,-285.68 813.686,-278.147C869.259,-274.803 936.408,-260.473 975.534,-225.592C1089.71,-123.795 1147.18,12.803 1138.53,165.882C1133.96,246.642 1072.22,304.648 994.21,326.031C915.895,347.5 833.629,354.619 753.043,367.71C732.04,371.122 710.845,373.352 694.404,375.511" style="fill:white;fill-rule:nonzero;"/>
            </g>
            <g transform="matrix(1.99601,0,0,2.12689,-7326.04,8072.11)">
                <path d="M0,496.061C-78.716,519.481 -155.334,540.286 -230.628,565.107C-373.265,612.129 -469.189,576.611 -545.063,445.592C-620.887,314.664 -606.132,99.419 -513.774,-20.838C-469.162,-78.927 -408.005,-116.068 -338.12,-110.251C-254.348,-103.279 -171.299,-79.679 -90.046,-56.03C-70.121,-50.23 -52.575,-18.381 -43.908,5.163C-4.076,113.361 17.04,379.339 0,496.061" style="fill:white;fill-rule:nonzero;"/>
            </g>
            <g transform="matrix(3,0,0,3,-6461.37,9588.08)">
                <path d="M0,-674.56C-22.247,-705.466 -54.322,-745.071 -80.542,-788.232C-97.423,-816.021 -113.427,-848.545 -115.409,-879.861C-117.017,-905.235 -97.129,-931.97 -86.775,-958.101C-65.735,-947.76 -41.566,-941.069 -24.329,-926.292C8.183,-898.42 36.8,-865.986 66.862,-835.279C132.84,-767.885 192.058,-703.109 302.031,-693.164C424.448,-682.094 507.294,-581.032 613.199,-496.399C578.163,-496.399 558.285,-495.366 538.543,-496.569C425.757,-503.444 318.69,-479.594 211.319,-446.312C69.008,-402.2 14.196,-295.34 -3.562,-162.753C-20.896,-33.322 -29.011,97.34 -41.6,227.42C-43.432,246.348 -47.642,265.045 -55.481,283.541C-77.117,30.351 -119.874,-222.161 -84.648,-476.025C-75.576,-541.411 -32.019,-602.011 0,-674.56" style="fill:white;fill-rule:nonzero;"/>
            </g>
            <g transform="matrix(3,0,0,3,-6998.57,7348.91)">
                <path d="M0,734.886C-19.474,659.436 -45.997,584.961 -56.605,508.284C-69.367,416.044 -67.013,321.798 -74.894,228.733C-76.66,207.872 -88.829,182.315 -104.712,169.283C-150.694,131.555 -166.288,77.013 -135.951,37.075C-108.12,0.436 -48.79,0 -5.404,39.873C41.623,83.093 74.876,127.468 47.759,201.954C-3.956,344.005 4.618,493.3 14.911,641.46C16.929,670.509 19.67,699.507 22.078,728.529L0,734.886Z" style="fill:white;fill-rule:nonzero;"/>
            </g>
            <path d="M-5672.41,9867.9C-5521.1,9872.57 -5408.11,10002.6 -5416.78,10162.2C-5424.77,10309 -5548.85,10426.5 -5691.68,10422.4C-5842.46,10418 -5956.33,10286.9 -5947.38,10127.9C-5939.08,9980.34 -5815.51,9863.49 -5672.41,9867.9ZM-5676.36,9980.85C-5586.69,9983.62 -5519.74,10060.7 -5524.88,10155.2C-5529.61,10242.3 -5603.14,10311.9 -5687.78,10309.4C-5777.12,10306.8 -5844.6,10229.1 -5839.3,10134.9C-5834.38,10047.5 -5761.15,9978.24 -5676.36,9980.85Z" style="fill:white;"/>
            <path d="M-4544.05,10069.7C-4541.9,10035 -4538.68,10000.3 -4537.78,9965.56C-4533.9,9815.32 -4454.46,9720.94 -4311.55,9695.37C-4172.88,9670.56 -4066.76,9740.72 -4020.45,9868.35C-3972.22,10001.3 -4003.24,10126.6 -4133.63,10203.9C-4265,10281.8 -4379.87,10243.4 -4478.64,10136.7C-4501.48,10112 -4525.76,10088.6 -4549.59,10064.4C-4549.79,10064.3 -4544.05,10069.7 -4544.05,10069.7ZM-4268.54,9816.51C-4178.88,9819.27 -4111.93,9896.34 -4117.07,9990.88C-4121.8,10077.9 -4195.33,10147.5 -4279.96,10145.1C-4369.31,10142.5 -4436.79,10064.8 -4431.48,9970.59C-4426.56,9883.13 -4353.34,9813.89 -4268.54,9816.51Z" style="fill:white;"/>
        </g>
    </g>
</svg>
