<?xml version="1.0" encoding="UTF-8" standalone="no"?>
<!DOCTYPE svg PUBLIC "-//W3C//DTD SVG 1.1//EN" "http://www.w3.org/Graphics/SVG/1.1/DTD/svg11.dtd">
<svg width="100%" height="100%" viewBox="0 0 172 100" version="1.1" xmlns="http://www.w3.org/2000/svg" xmlns:xlink="http://www.w3.org/1999/xlink" xml:space="preserve" xmlns:serif="http://www.serif.com/" style="fill-rule:evenodd;clip-rule:evenodd;stroke-linejoin:round;stroke-miterlimit:1.41421;">
    <g transform="matrix(1,0,0,1,2496,-6302)">
        <g transform="matrix(1,0,0,1,-14667.1,-3110.25)">
            <path d="M12318.1,9478.84C12318,9484.73 12318,9490.62 12318,9496.51C12318,9498.07 12317.8,9499.6 12317.3,9501.09C12316.7,9503.11 12315.6,9505 12314.2,9506.6C12312.6,9508.49 12310.5,9509.96 12308.2,9510.88C12307,9511.35 12305.8,9511.67 12304.5,9511.83C12304,9511.9 12303.5,9511.93 12302.9,9511.95C12256.4,9512.54 12233.4,9511.95 12186.8,9511.95C12185,9511.93 12183.2,9511.63 12181.5,9511.01C12177.4,9509.5 12174,9506.23 12172.4,9502.15C12172,9500.96 12171.6,9499.71 12171.5,9498.45C12171.4,9497.93 12171.4,9497.4 12171.4,9496.88C12171,9474.1 12171,9451.32 12171.4,9428.55C12171.4,9428.03 12171.4,9427.5 12171.5,9426.98C12171.6,9425.84 12171.9,9424.72 12172.3,9423.64C12173.1,9421.41 12174.4,9419.38 12176.2,9417.75C12177.7,9416.29 12179.5,9415.15 12181.5,9414.42C12183.1,9413.84 12184.7,9413.55 12186.4,9413.48C12233.1,9412.89 12256.3,9412.89 12302.9,9413.48C12304.6,9413.55 12306.3,9413.84 12307.9,9414.42C12309.4,9414.98 12310.8,9415.78 12312.1,9416.78C12314.3,9418.55 12316.1,9420.95 12317.1,9423.64C12317.7,9425.22 12318,9426.87 12318,9428.55C12318.1,9434.83 12318.1,9441.1 12318.2,9447.37C12321.6,9447.33 12325,9447.37 12328.4,9447.5C12328.6,9447.52 12328.8,9447.56 12329,9447.63C12329.5,9447.83 12329.9,9448.23 12330.1,9448.72C12330.1,9448.91 12330.2,9449.09 12330.2,9449.29C12330.5,9458.47 12330.2,9467.67 12330.2,9476.87C12330.2,9477.06 12330.2,9477.25 12330.1,9477.44C12330,9477.95 12329.6,9478.38 12329.1,9478.61C12328.9,9478.72 12328.6,9478.77 12328.4,9478.8C12325,9478.93 12321.5,9478.88 12318.1,9478.84ZM12263.2,9422.32C12250.1,9422.31 12238.1,9422.54 12225,9422.75L12225,9503.47C12238.1,9503.71 12250.1,9503.72 12263.2,9503.5L12263.2,9422.32ZM12268.2,9422.34L12268.2,9503.4C12278.6,9503.18 12289.8,9502.82 12302.8,9502.33C12303.5,9502.28 12304.2,9502.14 12304.8,9501.88C12306.4,9501.21 12307.6,9499.85 12308.1,9498.21C12308.3,9497.7 12308.4,9497.17 12308.4,9496.63C12308.7,9473.97 12309.2,9451.3 12308.4,9428.65C12308.3,9427.97 12308.2,9427.31 12307.9,9426.68C12307.3,9425.19 12306.1,9424.01 12304.6,9423.45C12304,9423.25 12303.4,9423.14 12302.8,9423.1C12289.8,9422.61 12278.6,9422.4 12268.2,9422.34ZM12220,9422.82C12210,9422.97 12199.3,9423.1 12186.9,9423.1C12186.2,9423.1 12185.5,9423.21 12184.8,9423.45C12183.3,9424.02 12182,9425.26 12181.4,9426.8C12181.1,9427.44 12181,9428.11 12181,9428.8C12180.6,9451.46 12180.2,9474.15 12181,9496.8C12181,9497.42 12181.2,9498.04 12181.4,9498.62C12181.9,9500.03 12183,9501.2 12184.4,9501.82C12185.1,9502.12 12185.8,9502.28 12186.5,9502.33C12199.1,9502.8 12209.9,9503.15 12220,9503.37L12220,9422.82ZM12203.3,9484.19L12192.2,9484.19C12193,9473.73 12197.2,9464.55 12204.7,9456.65L12186,9456.65L12186,9448L12215.2,9448L12215.2,9456.04C12207.9,9462.48 12204,9471.86 12203.3,9484.19ZM12247.3,9484.19L12236.2,9484.19C12237.1,9473.73 12241.2,9464.55 12248.7,9456.65L12230,9456.65L12230,9448L12259.2,9448L12259.2,9456.04C12251.9,9462.48 12248,9471.86 12247.3,9484.19ZM12291.7,9484.19L12280.7,9484.19C12281.5,9473.73 12285.6,9464.55 12293.2,9456.65L12274.5,9456.65L12274.5,9448L12303.6,9448L12303.6,9456.04C12296.4,9462.48 12292.4,9471.86 12291.7,9484.19ZM12325.2,9454.67L12319.3,9454.67C12319.3,9460.32 12319.3,9465.98 12319.2,9471.63L12325.2,9471.63L12325.2,9454.67ZM12331.3,9433.16C12329.1,9432.22 12327.4,9430.32 12326.7,9428.03C12326.4,9427.18 12326.3,9426.27 12326.3,9425.38C12326.4,9424.56 12326.5,9423.74 12326.8,9422.96C12327.1,9422.02 12327.6,9421.14 12328.2,9420.37C12328.9,9419.56 12329.7,9418.88 12330.6,9418.38C12331.7,9417.79 12332.9,9417.47 12334.1,9417.4C12334.3,9417.39 12334.5,9417.39 12334.7,9417.39C12335.9,9417.43 12337,9417.69 12338.1,9418.2C12340.3,9419.24 12341.9,9421.22 12342.5,9423.54C12342.7,9424.55 12342.8,9425.61 12342.7,9426.64C12342.6,9427.51 12342.3,9428.36 12341.9,9429.15C12341.5,9429.98 12341,9430.74 12340.3,9431.4C12339.6,9432.09 12338.8,9432.67 12337.9,9433.07C12337.9,9433.09 12337.8,9433.11 12337.8,9433.13C12338.2,9445.25 12337.7,9457.38 12337.7,9469.5C12337.7,9469.68 12337.7,9469.84 12337.7,9470.01C12337.5,9470.55 12337.1,9471.02 12336.6,9471.26C12336.4,9471.35 12336.2,9471.4 12336,9471.43C12335.1,9471.47 12334.2,9471.44 12333.3,9471.44C12333.1,9471.43 12332.8,9471.4 12332.6,9471.32C12332.1,9471.13 12331.7,9470.7 12331.5,9470.17C12331.4,9470 12331.4,9469.84 12331.4,9469.67C12330.8,9457.51 12331.3,9445.33 12331.3,9433.16ZM12335,9429.91C12335.3,9429.88 12335.7,9429.79 12336,9429.67C12336.5,9429.49 12337,9429.22 12337.4,9428.87C12337.8,9428.51 12338.1,9428.06 12338.4,9427.56C12338.6,9427.22 12338.7,9426.85 12338.8,9426.47C12338.9,9426.11 12338.9,9425.74 12338.9,9425.37C12338.8,9423.94 12338,9422.62 12336.8,9421.88C12336.3,9421.57 12335.7,9421.37 12335.1,9421.29C12334.9,9421.26 12334.6,9421.25 12334.4,9421.26C12333.8,9421.28 12333.1,9421.43 12332.6,9421.73C12331.4,9422.34 12330.5,9423.5 12330.3,9424.82C12330.2,9425.26 12330.2,9425.71 12330.2,9426.15C12330.3,9426.53 12330.4,9426.92 12330.5,9427.28C12330.7,9427.76 12331,9428.21 12331.4,9428.59C12331.8,9428.97 12332.2,9429.28 12332.7,9429.51C12333.1,9429.73 12333.6,9429.86 12334.1,9429.91C12334.4,9429.91 12334.7,9429.91 12335,9429.91Z" style="fill:white;"/>
        </g>
    </g>
</svg>
